# xmcd
#
# Track frame offsets: 
#        150
#        26013
#        52341
#        79705
#        100153
#        118941
#        139936
#        160771
#
# Disc length: 2486 seconds
#
# Revision: 0
# Processed by: cddbd v1.5.2PL0 Copyright (c) Steve Scherf et al.
# Submitted via: ExactAudioCopyFreeDBPlugin 1.0
#
DISCID=6b09b408
DTITLE=Majik-One #1 - T-Roby
DYEAR=2012
DGENRE=World
TTITLE0=Panik Nan Base La
TTITLE1=San Vou
TTITLE2=Katon Rouj
TTITLE3=Chayé Mwen
TTITLE4=Souvenir
TTITLE5=Vini'w La
TTITLE6=Li Ka Dansé
TTITLE7=Panik Nan Base La (Instrumental)
EXTD=
EXTT0=
EXTT1=
EXTT2=
EXTT3=
EXTT4=
EXTT5=
EXTT6=
EXTT7=
PLAYORDER=
